<svg xmlns="http://www.w3.org/2000/svg" viewBox="0 0 100 125" x="0px" y="0px"><title>leaves</title><path d="M72.47,86.28c.34-.51,2.47-5.6,1.59-5.79-17-3.57-19.75-5-22-7.45s3.43-5.2,7.65-.89c3.5,3.57,5.68,4.24,7,4,1.19-.21,4.08.33,6.67,1.51a5.3,5.3,0,0,0,6.67-1.87c1.69-2.4,2.5-3.62,3.81-5.81s3-5.53,2.37-5.75c-.28-.1-4.59,1.21-6.5,1.54-3,.51-15-.68-19.06-1.54-3.59-.76-3.47-6.31,2.5-4.43S73.06,61.66,79,62.28s6.7-1.05,7.32-1.67a40.41,40.41,0,0,0,5.38-9.92c.84-2.53.55-3.44-1.59-2.55s-18,6-23.32,2.83S66,47,69,46.9a40.6,40.6,0,0,1,7.94.73,14.5,14.5,0,0,0,6.42.21c7.63-1.54,9.41-3.94,9.2-5.65a43.69,43.69,0,0,1,1.08-9.24c.81-3.28-.81-2.95-2.68-1.79s-10.23,6.31-16,5.34-1.51-4,0-4.8,6.85-1.87,11.65-2.22,3.3-5.77,3.3-5.77L86.4,13.94l.12-.12-.19-.07-.07-.19-.12.12L76.38,10.2S71,8.7,70.61,13.5s-1.42,10.14-2.22,11.65-3.82,5.78-4.8,0,4.18-14.14,5.34-16,1.49-3.49-1.79-2.68a43.69,43.69,0,0,1-9.24,1.08c-1.71-.21-4.11,1.57-5.65,9.2a14.5,14.5,0,0,0,.21,6.42,40.6,40.6,0,0,1,.73,7.94c-.09,2.93-.85,7.51-4.07,2.15S51,12.08,51.93,9.94s0-2.42-2.55-1.59a40.41,40.41,0,0,0-9.92,5.38c-.62.62-2.3,1.36-1.67,7.32s.6,9.85,2.48,15.82S36.6,43,35.84,39.38c-.86-4.08-2-16.09-1.54-19.06.33-1.91,1.64-6.22,1.54-6.5-.21-.59-3.58,1.07-5.75,2.37S26.68,18.3,24.28,20a5.3,5.3,0,0,0-1.87,6.67c1.18,2.59,1.72,5.48,1.51,6.67-.24,1.35.43,3.53,4,7,4.31,4.22,1.6,10-.89,7.65s-3.88-5-7.45-22c-.19-.88-5.28,1.25-5.79,1.59a5.72,5.72,0,0,0-2.1,3,23.56,23.56,0,0,0-.95,6.19c-.22,3.54.24,7.48,2.69,10.23,0,0,5.58,5.12,6.19,6.19s.69,4.1-3.74,1.27c-3.34-2.13-5.73-7.16-6.93-9.81a.89.89,0,0,0-1.65,0c-1,2.53-2.2,8,.5,16.81,3.91,12.81,13.43,10.58,19.48,6.31s4.45-1.42,4.45-1.42l.82.82.26.26.82.82s2.85-1.59-1.42,4.45-6.49,15.56,6.31,19.48c8.84,2.7,14.28,1.5,16.81.5a.89.89,0,0,0,0-1.65c-2.65-1.2-7.68-3.59-9.81-6.93-2.82-4.42.15-4.38,1.27-3.74s6.19,6.19,6.19,6.19c2.75,2.46,6.69,2.91,10.23,2.69a23.56,23.56,0,0,0,6.19-.95A5.72,5.72,0,0,0,72.47,86.28Z"/><text x="0" y="115" fill="#000000" font-size="5px" font-weight="bold" font-family="'Helvetica Neue', Helvetica, Arial-Unicode, Arial, Sans-serif">Created by Zoé Chartier</text><text x="0" y="120" fill="#000000" font-size="5px" font-weight="bold" font-family="'Helvetica Neue', Helvetica, Arial-Unicode, Arial, Sans-serif">from the Noun Project</text></svg>